# xmcd
#
# Track frame offsets:
#	150
#	22887
#	41549
#	69365
#	95120
#	115749
#	135479
#	153921
#	185466
#	201545
#	225327
#	243664
#	267123
#	290105
#	311890
#	334828
#
# Disc length: 4796 seconds
#
# Revision: 4
# Processed by: cddbd v1.5.2PL0 Copyright (c) Steve Scherf et al.
# Submitted via: EZCDAudioConverter 6.0.0.1
#
DISCID=e612ba10
DTITLE=Various Artist - Akella Presents - Modern Electric Blues - vol.26  CD1  New!
DYEAR=2013
DGENRE=Blues
TTITLE0=DUFFY BISHOP - Damn Blues
TTITLE1=BLUESBALL - I Know Why
TTITLE2=KAL DAVID - Free
TTITLE3=JAMES SOLBERG - Secondhand Smoke
TTITLE4=BILLY D and The HOODOOS - Whyya Do It
TTITLE5=LEON RUSSELL - Dark Carousel
TTITLE6=SIR OLIVER MALLY - Riders On The Storm
TTITLE7=PAT McMANUS - Fool
TTITLE8=JOHN CAMPBELLJOHN - Manslaughter
TTITLE9=ZAC HARMON - I'm a Healer
TTITLE10=SNOWY WHITE BLUES PROJECT - One Way Ticket
TTITLE11=JIM SUHLER and MONKEY BEAT - Prayin' For Rain
TTITLE12=GURF MORELIX - One More Second
TTITLE13=BRANT PARKER - River of  Broken Dreams
TTITLE14=BOBBY MACK and NIGHT TRAIN - Honeytrap
TTITLE15=The BEAT DADDYS - Evil Memory
EXTD=
EXTT0=
EXTT1=
EXTT2=
EXTT3=
EXTT4=
EXTT5=
EXTT6=
EXTT7=
EXTT8=
EXTT9=
EXTT10=
EXTT11=
EXTT12=
EXTT13=
EXTT14=
EXTT15=
PLAYORDER=
